<svg width="96" height="96" viewBox="0 0 96 96" fill="none" xmlns="http://www.w3.org/2000/svg">
<circle opacity="0.15" cx="48" cy="48" r="48" fill="#D8C2AA"/>
<path d="M65.7168 41.8837H62.3171L63.3414 30.1229C63.3433 30.1016 63.3436 30.0806 63.3437 30.0596C63.3437 30.0578 63.3439 30.0561 63.3439 30.0543C63.3439 30.054 63.3439 30.0538 63.3439 30.0535C63.3439 29.7334 63.1508 29.4513 62.867 29.3286C62.8646 29.3276 62.8622 29.3263 62.8598 29.3252C62.8422 29.3179 62.824 29.3115 62.8056 29.3054C62.7987 29.3032 62.7922 29.3004 62.7854 29.2983C62.7704 29.2938 62.755 29.2902 62.7397 29.2865C62.7289 29.284 62.7186 29.2809 62.7077 29.2788C62.6943 29.2762 62.6804 29.2745 62.6667 29.2725C62.6538 29.2706 62.6412 29.2684 62.6282 29.2672C62.626 29.267 62.624 29.2666 62.6218 29.2664C62.6078 29.2651 62.5941 29.2653 62.5803 29.2648C62.571 29.2645 62.562 29.2634 62.5527 29.2634H62.5428C62.5419 29.2634 62.5411 29.2634 62.5403 29.2634H46.3644C45.9278 29.2634 45.5734 29.6178 45.5734 30.0544C45.5734 30.49 45.9278 30.8455 46.3644 30.8455H61.6905L60.1162 48.9202C60.116 48.9216 60.116 48.923 60.1158 48.9244L59.7186 53.4849H32.2324L32.6921 48.739H37.9256C38.3626 48.739 38.7167 48.3849 38.7167 47.948C38.7167 47.5112 38.3626 47.157 37.9256 47.157H32.8455L33.8162 37.138H42.1457C42.5826 37.138 42.9367 36.7838 42.9367 36.3469C42.9367 35.9101 42.5826 35.5559 42.1457 35.5559H33.9696L34.4261 30.8455H43.2004C43.6359 30.8455 43.9914 30.49 43.9914 30.0544C43.9914 29.6178 43.6359 29.2634 43.2004 29.2634H33.7081C33.7077 29.2634 33.7074 29.2635 33.707 29.2635C33.3354 29.2634 33.0131 29.525 32.9351 29.8876C32.9346 29.8902 32.9337 29.8928 32.9331 29.8954C32.9291 29.9151 32.9265 29.9353 32.9239 29.9555C32.9231 29.962 32.9218 29.9681 32.9211 29.9745C32.921 29.9758 32.9207 29.9769 32.9206 29.9782L32.3802 35.5559H22.791C22.3541 35.5559 22 35.9101 22 36.3469C22 36.7838 22.3541 37.138 22.791 37.138H32.2268L31.2561 47.157H28.4338C27.9969 47.157 27.6428 47.5112 27.6428 47.948C27.6428 48.3849 27.9969 48.739 28.4338 48.739H31.1028L30.5742 54.194C30.5741 54.1949 30.5741 54.1957 30.574 54.1964L29.7567 62.6318C29.7566 62.6327 29.7565 62.6338 29.7564 62.6346L29.7561 62.6377C29.755 62.6486 29.7551 62.6594 29.7545 62.6704C29.7538 62.6849 29.7523 62.6992 29.7523 62.7139C29.7523 62.7146 29.7524 62.7152 29.7524 62.7159C29.7524 62.7363 29.7539 62.7563 29.7554 62.7764C29.756 62.7828 29.7558 62.7893 29.7565 62.7957C29.7586 62.8161 29.7621 62.8363 29.7658 62.8563C29.7669 62.8622 29.7674 62.8682 29.7685 62.874C29.7716 62.8892 29.7759 62.9039 29.7799 62.9187C29.7827 62.9292 29.7849 62.9398 29.7881 62.9501C29.789 62.9529 29.7903 62.9557 29.7911 62.9586C29.8294 63.0763 29.8944 63.182 29.9792 63.2683C29.9807 63.2699 29.982 63.2716 29.9836 63.2731C29.992 63.2816 30.0012 63.2892 30.0101 63.2972C30.0646 63.3472 30.1262 63.3896 30.1936 63.4228C30.2076 63.4297 30.2214 63.437 30.2358 63.443C30.2401 63.4449 30.2447 63.4462 30.2492 63.4479C30.269 63.4558 30.2889 63.4634 30.3095 63.4698C30.3114 63.4703 30.3132 63.4707 30.3151 63.4713C30.3385 63.4783 30.3621 63.4844 30.3863 63.4893C30.3894 63.49 30.3927 63.4902 30.3958 63.4908C30.4188 63.4951 30.4419 63.4988 30.4654 63.5011C30.4659 63.5011 30.4663 63.5012 30.4669 63.5014C30.4928 63.5039 30.5185 63.5052 30.5441 63.5052C30.5444 63.5052 30.5448 63.505 30.5452 63.505H34.0666C34.4555 66.4532 36.9831 68.7366 40.0359 68.7366C43.0885 68.7366 45.616 66.4532 46.0049 63.505H58.6927C59.0817 66.4532 61.6092 68.7366 64.6619 68.7366C67.7145 68.7366 70.2422 66.4532 70.6312 63.505H74.1534C74.154 63.505 74.1546 63.5052 74.1551 63.5052C74.1815 63.5052 74.2074 63.5036 74.2332 63.501C74.2378 63.5006 74.2423 63.4997 74.2469 63.4991C74.2675 63.4967 74.2879 63.4939 74.308 63.4899C74.3166 63.4882 74.3249 63.4858 74.3335 63.4838C74.349 63.4803 74.3646 63.4765 74.3798 63.4719C74.3901 63.4689 74.4001 63.4653 74.4103 63.4618C74.4232 63.4574 74.4362 63.4527 74.449 63.4476C74.4599 63.4432 74.4704 63.4385 74.481 63.4338C74.4926 63.4284 74.5042 63.4229 74.5155 63.4171C74.5263 63.4116 74.5366 63.4059 74.547 63.4C74.5578 63.3937 74.5686 63.3871 74.5792 63.3804C74.5891 63.3741 74.5991 63.3676 74.6085 63.3609C74.6193 63.3534 74.6295 63.3455 74.64 63.3375C74.6486 63.3306 74.6574 63.3238 74.6658 63.3167C74.6767 63.3075 74.6869 63.2979 74.6972 63.2881C74.7044 63.2812 74.7119 63.2745 74.7189 63.2673C74.7298 63.2561 74.7403 63.2443 74.7507 63.2324C74.7563 63.226 74.7621 63.2198 74.7675 63.2132C74.7791 63.1989 74.7896 63.1841 74.8002 63.1692C74.8038 63.1641 74.8078 63.1592 74.8113 63.1539C74.8241 63.1346 74.8363 63.1148 74.8474 63.0943C74.8483 63.0931 74.8491 63.0919 74.8497 63.0905C74.8616 63.0686 74.8725 63.0461 74.8823 63.0229C74.8851 63.0163 74.8872 63.0094 74.8898 63.0028C74.8963 62.9865 74.9026 62.9701 74.908 62.9531C74.9115 62.9422 74.914 62.9309 74.917 62.9198C74.9205 62.9066 74.9242 62.8935 74.9272 62.8801C74.9298 62.8682 74.9315 62.856 74.9335 62.8439C74.9353 62.8332 74.9376 62.8228 74.939 62.8119C74.9725 62.5432 75.5919 57.5736 75.8686 54.3601C75.8689 54.3571 75.869 54.3539 75.8693 54.3508C75.949 53.4245 76 52.6445 76 52.1669C76 46.4968 71.387 41.8837 65.7168 41.8837ZM62.1792 43.4659H65.4153L65.002 48.2116H61.7659L62.1792 43.4659ZM40.0361 67.1545C37.5874 67.1545 35.5953 65.1624 35.5953 62.7138C35.5953 60.2652 37.5875 58.2731 40.0361 58.2731C42.4846 58.2731 44.4767 60.2652 44.4767 62.7138C44.4767 65.1624 42.4846 67.1545 40.0361 67.1545ZM64.6619 67.1545C62.2133 67.1545 60.2213 65.1624 60.2213 62.7138C60.2213 60.2652 62.2134 58.2731 64.6619 58.2731C67.1105 58.2731 69.1026 60.2652 69.1026 62.7138C69.1026 65.1624 67.1105 67.1545 64.6619 67.1545ZM73.4545 61.9225H70.6314C70.2427 58.9741 67.715 56.6906 64.6621 56.6906C61.6094 56.6906 59.0817 58.9742 58.6929 61.9225H46.0052C45.6164 58.9741 43.0889 56.6906 40.0361 56.6906C36.9833 56.6906 34.4555 58.9742 34.0667 61.9225H31.4148L32.0792 55.0666H60.4435V55.067C60.4439 55.067 60.4442 55.067 60.4447 55.067C60.4711 55.067 60.4974 55.0655 60.5233 55.0629C60.5282 55.0625 60.533 55.0614 60.5378 55.0608C60.5585 55.0583 60.579 55.0554 60.5993 55.0514C60.608 55.0496 60.6166 55.0472 60.6252 55.045C60.6411 55.0413 60.6569 55.0376 60.6723 55.0329C60.6828 55.0298 60.6928 55.026 60.7031 55.0224C60.7164 55.0177 60.7296 55.0132 60.7425 55.0079C60.7536 55.0034 60.7642 54.9983 60.775 54.9933C60.7867 54.9879 60.7984 54.9825 60.8097 54.9766C60.8205 54.9709 60.831 54.9648 60.8417 54.9587C60.8525 54.9523 60.8633 54.9459 60.8738 54.9392C60.8841 54.9325 60.8938 54.9255 60.9036 54.9186C60.914 54.9112 60.9241 54.9036 60.9343 54.8957C60.9433 54.8884 60.9523 54.8809 60.9612 54.8732C60.9712 54.8646 60.981 54.8557 60.9905 54.8466C60.9985 54.8389 61.0065 54.8309 61.0143 54.8228C61.0238 54.8129 61.033 54.8027 61.042 54.7922C61.0491 54.784 61.0561 54.7758 61.0628 54.7673C61.0716 54.7563 61.0799 54.7449 61.0881 54.7334C61.0944 54.7247 61.1004 54.7161 61.1063 54.7072C61.114 54.6953 61.1214 54.6831 61.1284 54.6706C61.1338 54.6614 61.1393 54.6521 61.1441 54.6426C61.1508 54.6301 61.1565 54.6175 61.1625 54.6047C61.1671 54.5945 61.1719 54.5845 61.1761 54.5739C61.1813 54.5615 61.1856 54.5487 61.1901 54.5359C61.194 54.5247 61.1981 54.5134 61.2016 54.5018C61.2051 54.4895 61.208 54.477 61.2111 54.4645C61.2142 54.452 61.2175 54.4395 61.22 54.4268C61.2224 54.4143 61.2239 54.4017 61.2258 54.389C61.2277 54.3759 61.2299 54.3631 61.2312 54.3498C61.2314 54.3479 61.2318 54.3461 61.2319 54.3442L61.6284 49.7932H65.7165C68.1401 49.7932 69.2332 51.0489 70.3903 52.3785C71.3451 53.4755 72.4111 54.6994 74.2231 54.998C73.9929 57.4312 73.6209 60.5548 73.4545 61.9225ZM74.3583 53.4128C73.1828 53.1732 72.4596 52.3468 71.5835 51.3402C70.4878 50.0815 69.1501 48.5453 66.5858 48.2591L66.995 43.5606C71.1889 44.1809 74.418 47.8035 74.418 52.1671C74.418 52.4636 74.3958 52.8943 74.3583 53.4128Z" fill="black"/>
<path d="M40.0361 59.8132C38.4368 59.8132 37.1357 61.1143 37.1357 62.7136C37.1357 64.313 38.4368 65.614 40.0361 65.614C41.6353 65.614 42.9365 64.313 42.9365 62.7136C42.9365 61.1144 41.6353 59.8132 40.0361 59.8132ZM40.0361 64.032C39.3091 64.032 38.7177 63.4406 38.7177 62.7136C38.7177 61.9866 39.3091 61.3953 40.0361 61.3953C40.7631 61.3953 41.3544 61.9866 41.3544 62.7136C41.3544 63.4406 40.763 64.032 40.0361 64.032Z" fill="black"/>
<path d="M64.6619 59.8132C63.0626 59.8132 61.7615 61.1143 61.7615 62.7136C61.7615 64.313 63.0626 65.614 64.6619 65.614C66.2611 65.614 67.5623 64.313 67.5623 62.7136C67.5623 61.1144 66.2611 59.8132 64.6619 59.8132ZM64.6619 64.032C63.9349 64.032 63.3435 63.4406 63.3435 62.7136C63.3435 61.9866 63.9349 61.3953 64.6619 61.3953C65.3889 61.3953 65.9802 61.9866 65.9802 62.7136C65.9802 63.4406 65.3889 64.032 64.6619 64.032Z" fill="black"/>
<path d="M29.4883 41.8838H25.6212C25.1842 41.8838 24.8302 42.238 24.8302 42.6748C24.8302 43.1117 25.1842 43.4658 25.6212 43.4658H29.4883C29.9253 43.4658 30.2793 43.1117 30.2793 42.6748C30.2793 42.238 29.9253 41.8838 29.4883 41.8838Z" fill="black"/>
</svg>
