<svg width="73" height="73" viewBox="0 0 73 73" fill="none" xmlns="http://www.w3.org/2000/svg">
<circle opacity="0.15" cx="36.5" cy="36.5" r="36.5" fill="#D8C2AA"/>
<path d="M36.6 16C25.6906 16 17 24.8755 17 35.6C17 46.5094 25.8755 55.2 36.6 55.2C47.5094 55.2 56.2 46.3245 56.2 35.6C56.2 24.6906 47.5094 16 36.6 16ZM36.6 17.2944C41.4075 17.2944 45.8453 19.1434 48.9886 22.2868L40.6679 30.6075C40.2981 29.4981 39.7434 28.2038 38.8188 27.2792L36.4151 24.8755L34.0113 27.2792C31.2377 30.0528 31.2377 34.4906 33.6415 37.449L32.717 38.3736C31.6075 37.634 30.1283 37.0792 28.649 37.0792H24.3962V38.7434C24.3962 40.9623 25.3207 42.9962 26.9849 44.2906L23.1019 48.1735C20.1434 44.8452 18.1094 40.5924 18.1094 35.7849C18.2943 25.4302 26.4302 17.2944 36.6 17.2944ZM34.9358 36.3396C34.0113 35.2302 33.4566 33.9358 33.4566 32.4566C33.4566 30.7924 34.0113 29.3132 35.3056 28.2038L36.7849 26.7246L38.2641 28.2038C39.1887 29.1283 39.7434 30.4226 39.9283 31.717L34.9358 36.3396ZM39.7434 33.3811C39.5585 34.6754 39.0038 35.7849 38.0792 36.7094L36.6 38.1887L35.8604 37.449L39.7434 33.3811ZM34.9358 44.4754V44.8453H31.7924C30.8679 44.8453 29.9434 44.6604 29.0189 44.1057L33.0868 40.0377C34.1962 41.1471 34.9358 42.6264 34.9358 44.4754ZM27.9094 43.1811C26.6151 42.0717 25.6906 40.4075 25.6906 38.5585V38.1887H28.834C29.9434 38.1887 31.0528 38.5585 31.9773 39.1132L27.9094 43.1811ZM36.6 53.9056C31.7924 53.9056 27.3547 52.0566 24.2113 48.9132L28.0943 45.0302C29.2038 45.5849 30.4981 45.9547 31.7924 45.9547H36.2302V44.2906C36.2302 42.2566 35.3056 40.4075 34.0113 38.9283L34.9358 38.0037L36.6 39.6679L39.0038 37.2641C40.483 35.7849 41.2226 33.7509 41.2226 31.717L50.0981 22.8415C53.0566 26.1698 55.0905 30.4226 55.0905 35.2302C54.9056 45.7698 46.7698 53.9056 36.6 53.9056Z" fill="#414042"/>
<path d="M36.9698 44.4754V46.1396H41.4076C45.4755 46.1396 48.8038 42.8113 48.8038 38.7434V37.0792H44.3661C40.1132 37.0792 36.9698 40.4075 36.9698 44.4754ZM47.5095 38.3736V38.7434C47.5095 42.0717 44.7359 44.8453 41.4076 44.8453H38.2642V44.4754C38.2642 41.1471 41.0378 38.3736 44.3661 38.3736H47.5095Z" fill="#414042"/>
</svg>
