<svg width="96" height="96" viewBox="0 0 96 96" fill="none" xmlns="http://www.w3.org/2000/svg">
<circle opacity="0.15" cx="48" cy="48" r="48" fill="#D8C2AA"/>
<path d="M69.6261 39.8705L75.5527 33.8958C75.7281 33.7188 75.81 33.4697 75.7737 33.2234C75.7373 32.9769 75.587 32.7619 75.368 32.6433L55.9095 22.0966C55.6016 21.9299 55.2208 21.985 54.9732 22.2327L48.9996 28.2063L43.0264 22.2331C42.8777 22.0833 42.6783 22 42.4684 22C42.3366 22 42.2069 22.0336 42.0909 22.097L35.8409 25.4834C35.6553 25.5847 35.5203 25.7513 35.4601 25.9538C35.4 26.1563 35.4222 26.3704 35.5224 26.556C35.6616 26.8113 35.9284 26.9706 36.2185 26.9706C36.3492 26.9706 36.48 26.9369 36.595 26.8747L42.325 23.7687L47.6901 29.1338L29.6332 38.8937L24.3135 33.5306L33.8128 28.3818C33.9995 28.2816 34.1345 28.115 34.1946 27.9125C34.2547 27.71 34.2326 27.4959 34.1313 27.3102C33.9932 27.055 33.7263 26.8958 33.4363 26.8958C33.3055 26.8958 33.1758 26.9294 33.0598 26.9916L22.6323 32.6437C22.414 32.7607 22.2621 32.978 22.2262 33.2238C22.1904 33.4684 22.2728 33.7194 22.4477 33.8956L28.3737 39.8707L22.4473 45.8453C22.2719 46.0223 22.1901 46.2714 22.2263 46.5178C22.2627 46.7643 22.413 46.9792 22.632 47.0979L28.6978 50.3855V64.6601C28.6977 64.6874 28.6991 64.7146 28.7018 64.7415C28.703 64.753 28.7052 64.7642 28.7068 64.7756C28.7088 64.7894 28.7104 64.8032 28.7131 64.8168C28.7165 64.834 28.7211 64.8507 28.7255 64.8675C28.7276 64.8752 28.7292 64.883 28.7316 64.8907C28.7367 64.9076 28.7429 64.9242 28.7492 64.9409C28.7519 64.9482 28.7542 64.9557 28.7573 64.963C28.7634 64.978 28.7705 64.9922 28.7774 65.0066C28.7818 65.0155 28.7857 65.0245 28.7903 65.0333C28.7966 65.0451 28.8037 65.0564 28.8104 65.0677C28.817 65.0786 28.8232 65.0896 28.8302 65.1002C28.836 65.109 28.8425 65.1173 28.8487 65.1259C28.8577 65.1382 28.8666 65.1507 28.8763 65.1628C28.8816 65.1694 28.8876 65.1755 28.8932 65.182C28.9044 65.1948 28.9156 65.2077 28.9276 65.2198C28.9338 65.2261 28.9407 65.2317 28.9471 65.238C28.9592 65.2493 28.971 65.2606 28.9837 65.2712C28.9961 65.2814 29.0091 65.2907 29.022 65.3001C29.0296 65.3057 29.0367 65.3116 29.0445 65.317C29.0672 65.3323 29.0907 65.3465 29.1149 65.3596L48.6198 75.9029C48.6478 75.9183 48.6772 75.9315 48.7072 75.9436C48.7138 75.9461 48.7204 75.9484 48.7271 75.9507C48.749 75.9589 48.7712 75.966 48.7941 75.972C48.8024 75.9743 48.8105 75.9765 48.8187 75.9784C48.8409 75.9835 48.8633 75.9877 48.8861 75.9909C48.8939 75.992 48.9015 75.9935 48.9093 75.9944C48.939 75.9978 48.9692 76 48.9999 76C49.0306 76 49.0608 75.9978 49.0905 75.9944C49.0983 75.9935 49.106 75.992 49.1138 75.9909C49.1366 75.9877 49.1591 75.9835 49.1811 75.9784C49.1893 75.9765 49.1976 75.9743 49.2057 75.972C49.2285 75.9659 49.2508 75.9589 49.2726 75.9507C49.2793 75.9484 49.2859 75.9461 49.2925 75.9436C49.3224 75.9315 49.3517 75.9183 49.3798 75.9029L68.8847 65.3596C68.9089 65.3465 68.9324 65.3323 68.9551 65.317C68.9629 65.3116 68.9701 65.3056 68.9776 65.3001C68.9906 65.2906 69.0036 65.2813 69.0159 65.2712C69.0286 65.2606 69.0404 65.2493 69.0525 65.238C69.0589 65.2317 69.0658 65.2262 69.072 65.2198C69.084 65.2077 69.0952 65.1948 69.1064 65.182C69.1119 65.1755 69.118 65.1694 69.1233 65.1628C69.133 65.1509 69.1419 65.1383 69.1509 65.1259C69.1571 65.1173 69.1636 65.109 69.1694 65.1002C69.1764 65.0896 69.1826 65.0787 69.1892 65.0677C69.196 65.0564 69.2031 65.0451 69.2093 65.0333C69.2139 65.0245 69.2178 65.0155 69.2222 65.0066C69.2291 64.9922 69.2362 64.978 69.2423 64.963C69.2454 64.9557 69.2477 64.9482 69.2504 64.9409C69.2566 64.9243 69.2629 64.9077 69.268 64.8907C69.2704 64.8831 69.2719 64.8753 69.2741 64.8675C69.2785 64.8507 69.2831 64.834 69.2865 64.8168C69.2892 64.8032 69.2908 64.7894 69.2928 64.7756C69.2944 64.7642 69.2967 64.753 69.2978 64.7415C69.3005 64.7145 69.3019 64.6873 69.3018 64.6601V50.3855L75.3673 47.098C75.5856 46.9799 75.7375 46.7626 75.7734 46.5179C75.8092 46.2722 75.7269 46.0211 75.5529 45.845L69.6261 39.8705ZM55.6745 23.7688L73.6861 33.5311L68.3665 38.894L50.3098 29.1335L55.6745 23.7688ZM29.8623 49.2174L24.3138 46.21L29.6334 40.8472L47.6902 50.6077L42.3254 55.9723L29.869 49.221C29.8668 49.2197 29.8646 49.2185 29.8623 49.2174ZM48.209 73.8823L30.2797 64.1907V51.243L42.0905 57.6445C42.2092 57.7088 42.3387 57.7401 42.4672 57.7401C42.6721 57.7401 42.8746 57.6606 43.0268 57.5085L48.209 52.3263V73.8823ZM49 49.5173L31.154 39.8707L49.0004 30.224L66.8465 39.8706L49 49.5173ZM68.1408 49.2158C68.1365 49.218 68.1322 49.2203 68.128 49.2226L64.1872 51.3587C64.0005 51.4589 63.8655 51.6266 63.8054 51.8291C63.7453 52.0317 63.7674 52.2457 63.8676 52.4314C64.0068 52.6867 64.2737 52.8449 64.5637 52.8449C64.6945 52.8449 64.8253 52.8121 64.9402 52.7499L67.7202 51.2431V64.1909L49.791 73.8824V52.3259L54.9737 57.5085C55.1235 57.6582 55.3217 57.7405 55.5326 57.7405C55.6634 57.7405 55.7931 57.7068 55.9092 57.6445L62.1591 54.257C62.3448 54.1568 62.4798 53.9891 62.5399 53.7866C62.6 53.5841 62.5778 53.371 62.4776 53.1854C62.3384 52.9291 62.0716 52.7709 61.7805 52.7709C61.6508 52.7709 61.52 52.8036 61.405 52.8669L55.675 55.9717L50.3099 50.6078L68.3669 40.8467L73.6867 46.2098L68.1408 49.2158Z" fill="#414042"/>
</svg>
