<svg width="73" height="73" viewBox="0 0 73 73" fill="none" xmlns="http://www.w3.org/2000/svg">
<circle opacity="0.15" cx="36.5" cy="36.5" r="36.5" fill="#D8C2AA"/>
<path d="M36.7996 15.6024C25.7481 15.6024 16.6021 24.5579 16.6021 35.7999C16.6021 47.0419 25.7481 55.9974 36.7996 55.9974C48.0416 55.9974 56.9971 46.8514 56.9971 35.7999C57.1876 24.5579 48.0416 15.6024 36.7996 15.6024ZM36.7996 54.6636C26.3197 54.6636 17.9358 46.2798 17.9358 35.7999C17.9358 25.3201 26.3197 16.9362 36.7996 16.9362C47.2794 16.9362 55.6633 25.3201 55.6633 35.7999C55.8538 46.2798 47.2794 54.6636 36.7996 54.6636Z" fill="#414042"/>
<path d="M38.3236 36.7526C36.6087 33.8945 33.3695 31.7985 29.5586 31.7985H23.6518V33.8945C23.6518 39.4202 28.0343 43.8027 33.56 43.8027H38.133H39.4668H40.0385C45.5642 43.8027 49.9467 39.4202 49.9467 33.8945V27.9877H47.8507C42.8966 27.7971 38.7047 31.7985 38.3236 36.7526ZM38.133 42.4689H33.56C28.7964 42.4689 24.9856 38.6581 24.9856 33.8945V33.3229H29.5586C34.3222 33.3229 38.133 37.1337 38.133 41.8973V42.4689ZM48.8034 29.1309V33.704C48.8034 38.4675 44.9926 42.2784 40.229 42.2784H39.6574V41.7067V37.7053C39.6574 32.9418 43.4682 29.1309 48.2318 29.1309H48.8034Z" fill="#414042"/>
</svg>
