<svg width="73" height="73" viewBox="0 0 73 73" fill="none" xmlns="http://www.w3.org/2000/svg">
<circle opacity="0.15" cx="36.5" cy="36.5" r="36.5" fill="#D8C2AA"/>
<path d="M37.7652 35.0453L36.5991 31.3528L35.4331 35.0453H31.7407L34.8501 37.183L33.4897 40.8755L36.5991 38.7377L39.7086 40.8755L38.5425 37.183L41.652 35.0453H37.7652Z" fill="#414042"/>
<path d="M47.0935 37.9604L46.7048 37.3773C46.3161 36.9887 46.3161 36.2113 46.7048 35.8226L47.0935 35.2396C47.4821 34.6566 47.2878 33.6849 46.7048 33.2962L46.1218 32.9075C45.5387 32.7132 45.3444 32.1302 45.5387 31.5472L45.7331 30.9641C45.9274 30.1868 45.3444 29.4094 44.567 29.4094H43.984C43.401 29.4094 43.0123 29.0208 42.818 28.4377L42.0406 27.6604C41.8463 26.883 41.0689 26.4943 40.2916 26.883L39.7086 27.0774C39.1255 27.2717 38.5425 27.2717 38.1538 26.6887L37.7652 26.1057C37.1821 25.5226 36.2104 25.5226 35.8218 26.1057L35.4331 26.6887C34.8501 27.2717 34.0727 27.2717 33.684 27.0774L33.101 26.883C32.3237 26.4943 31.5463 27.0774 31.1576 27.8547V28.4377C30.9633 29.0208 30.3803 29.4094 29.7972 29.4094H29.2142C28.4369 29.6038 27.8539 30.1868 27.8539 30.9641L28.0482 31.5472C28.0482 32.3245 27.8539 32.9075 27.2708 33.1019L26.6878 33.4906C25.9105 33.8792 25.7161 34.8509 26.2991 35.434L26.6878 36.017C27.0765 36.4056 27.0765 37.183 26.6878 37.5717L26.2991 38.1547C25.9105 38.7377 26.1048 39.7094 26.6878 40.0981L27.2708 40.4868C27.8539 40.6811 28.0482 41.2641 27.8539 41.8472L27.6595 42.4302C27.8539 43.2075 28.4369 43.9849 29.2142 43.9849H29.7972C30.3803 43.9849 30.9633 44.3736 30.9633 44.9566L31.1576 45.5396C31.352 46.317 32.3237 46.7056 32.9067 46.317L33.4897 46.1226C34.0727 45.9283 34.6557 45.9283 35.0444 46.5113L35.4331 47.0943C36.0161 47.6773 36.9878 47.6773 37.3765 47.0943L37.7652 46.5113C38.1538 46.1226 38.7369 45.9283 39.3199 46.1226L39.9029 46.317C40.6803 46.7056 41.4576 46.1226 41.652 45.3453L41.8463 44.7622C42.0406 44.1792 42.4293 43.7905 43.0123 43.7905H43.5953C44.3727 43.7905 44.9557 43.0132 44.7614 42.2358L44.567 41.6528C44.3727 41.0698 44.7614 40.4868 45.1501 40.2924L45.7331 39.9038C47.2878 39.5151 47.4821 38.5434 47.0935 37.9604ZM36.5991 44.3736C32.3237 44.3736 28.8255 40.8755 28.8255 36.6C28.8255 32.3245 32.3237 28.8264 36.5991 28.8264C40.8746 28.8264 44.3727 32.3245 44.3727 36.6C44.3727 40.8755 41.0689 44.3736 36.5991 44.3736Z" fill="#414042"/>
<path d="M36.6 16C25.3283 16 16 25.3283 16 36.6C16 48.066 25.3283 57.2 36.6 57.2C48.066 57.2 57.2 47.8717 57.2 36.6C57.3943 25.3283 48.066 16 36.6 16ZM36.6 55.8396C25.9113 55.8396 17.3604 47.2886 17.3604 36.6C17.3604 25.9113 25.9113 17.3604 36.6 17.3604C47.2886 17.3604 55.8396 25.9113 55.8396 36.6C55.8396 47.2886 47.2886 55.8396 36.6 55.8396Z" fill="#414042"/>
</svg>
