<svg width="96" height="96" viewBox="0 0 96 96" fill="none" xmlns="http://www.w3.org/2000/svg">
<circle opacity="0.15" cx="48" cy="48" r="48" fill="#D8C2AA"/>
<g clip-path="url(#clip0)">
<path d="M75.4432 32.8956L54.0226 21.1333C53.7008 20.9567 53.3105 20.9567 52.9887 21.1333L44.9148 25.5666C44.7445 25.6115 44.5854 25.6971 44.4537 25.82L31.5685 32.8956C31.2248 33.084 31.0112 33.4449 31.0112 33.8373V48.0631C28.8376 48.7429 26.8457 49.9417 25.1895 51.5984C20.8725 55.915 19.7718 62.4988 22.4506 67.9811C22.7108 68.514 23.3541 68.7351 23.887 68.4745C24.4203 68.2139 24.641 67.5707 24.3809 67.0378C22.1049 62.3796 23.0402 56.7857 26.7085 53.1174C29.0025 50.8233 32.0523 49.5599 35.2964 49.5599C38.5404 49.5599 41.5902 50.8233 43.8842 53.1174C46.1779 55.411 47.4413 58.4608 47.4413 61.7048C47.4413 64.9489 46.1779 67.9987 43.8838 70.2927C40.2155 73.961 34.6216 74.8963 29.9635 72.6203C29.4305 72.3598 28.7873 72.5809 28.5271 73.1138C28.2665 73.6471 28.4872 74.2904 29.0206 74.5506C31.0175 75.5266 33.1601 76.0008 35.2871 76.0008C38.9978 76.0004 42.659 74.556 45.4033 71.8117C46.6617 70.5533 47.6562 69.1014 48.3599 67.5233L52.9887 70.0649C53.1498 70.1534 53.3277 70.1975 53.5056 70.1975C53.6835 70.1975 53.8619 70.1534 54.0226 70.0649L75.4432 58.303C75.7869 58.1142 76.0004 57.7533 76.0004 57.3614V49.896C76.0004 49.3027 75.5196 48.8218 74.9262 48.8218C74.3329 48.8218 73.852 49.3027 73.852 49.896V56.7257L54.5832 67.3063V46.2332L60.9425 42.7411V48.2767C60.9425 48.6569 61.1431 49.0085 61.47 49.2015C61.6386 49.301 61.8275 49.3509 62.0167 49.3509C62.1946 49.3509 62.373 49.3068 62.5345 49.2179L67.1247 46.6914C67.468 46.5025 67.6807 46.1421 67.6807 45.7506V39.0409L73.852 35.6525V41.3027C73.852 41.896 74.3329 42.3769 74.9262 42.3769C75.5196 42.3769 76.0004 41.896 76.0004 41.3027V33.8373C76.0004 33.4453 75.7869 33.084 75.4432 32.8956ZM53.5056 23.3003L72.6943 33.8373L66.6413 37.161L47.4527 26.624L53.5056 23.3003ZM53.5056 44.3738L34.317 33.8373L40.5919 30.3914L59.781 40.9279L53.5056 44.3738ZM62.0125 39.7027L42.8239 29.1661L45.2207 27.8497L64.4098 38.3863L62.0125 39.7027ZM45.4033 51.5984C42.7034 48.8986 39.114 47.4119 35.2964 47.4119C34.5742 47.4119 33.8609 47.4651 33.1597 47.5696V35.6525L52.4352 46.2369V67.3101L49.0896 65.473C49.419 64.2603 49.5893 62.9956 49.5893 61.7048C49.5893 57.8872 48.1026 54.2978 45.4033 51.5984ZM65.5327 45.1157L63.0909 46.4597V41.5616L65.5327 40.2209V45.1157Z" fill="#414042"/>
<path d="M74.9258 44.5193C74.6434 44.5193 74.366 44.6343 74.1663 44.834C73.9666 45.0337 73.8516 45.3107 73.8516 45.5935C73.8516 45.8759 73.9666 46.1529 74.1663 46.3526C74.366 46.5528 74.6434 46.6673 74.9258 46.6673C75.2082 46.6673 75.4856 46.5528 75.6853 46.3526C75.8851 46.1529 76 45.8759 76 45.5935C76 45.3107 75.8851 45.0337 75.6853 44.834C75.4856 44.6343 75.2082 44.5193 74.9258 44.5193Z" fill="#414042"/>
<path d="M31.6838 62.7781C31.9587 62.7781 32.234 62.6732 32.4434 62.4639C32.863 62.0442 32.863 61.364 32.4434 60.9444L31.6994 60.2H38.0482C39.5882 60.2 40.8411 61.453 40.8411 62.993C40.8411 64.533 39.5882 65.786 38.0482 65.786H34.2863C33.693 65.786 33.2121 66.2669 33.2121 66.8602C33.2121 67.4531 33.693 67.934 34.2863 67.934H38.0482C40.7727 67.934 42.9896 65.7176 42.9896 62.993C42.9896 60.2684 40.7727 58.052 38.0482 58.052H31.6994L32.4434 57.3076C32.863 56.888 32.863 56.2078 32.4434 55.7882C32.0242 55.369 31.344 55.369 30.9243 55.7882L28.3462 58.3663C27.927 58.7859 27.927 59.4661 28.3462 59.8857L30.9243 62.4634C31.1341 62.6732 31.409 62.7781 31.6838 62.7781Z" fill="#414042"/>
<path d="M25.9494 72.1275C25.6439 72.1275 25.3405 71.9974 25.1286 71.7452L25.1265 71.7427C24.7447 71.2887 24.8034 70.6114 25.2574 70.2295C25.7114 69.8473 26.3891 69.906 26.771 70.36C27.1524 70.8145 27.0949 71.493 26.6409 71.8749C26.4391 72.0444 26.1936 72.1275 25.9494 72.1275Z" fill="#414042"/>
</g>
<defs>
<clipPath id="clip0">
<rect width="55" height="55" fill="white" transform="translate(21 21)"/>
</clipPath>
</defs>
</svg>
