<svg width="73" height="73" viewBox="0 0 73 73" fill="none" xmlns="http://www.w3.org/2000/svg">
<circle opacity="0.15" cx="36.5" cy="36.5" r="36.5" fill="#D8C2AA"/>
<path d="M36.6 16C25.6906 16 17 24.8755 17 35.6C17 46.5094 25.8755 55.2 36.6 55.2C47.5094 55.2 56.2 46.3245 56.2 35.6C56.2 24.8755 47.5094 16 36.6 16ZM36.6 17.4793C41.4075 17.4793 45.8453 19.3283 48.9887 22.4717L38.4491 33.0113V31.717H37.1547V34.3057L36.2302 35.2302H33.6415V31.717H32.3472V39.1132L23.1019 48.3585C20.1434 45.0302 18.1094 40.7774 18.1094 35.9698C18.2943 25.6151 26.4302 17.4793 36.6 17.4793ZM35.1208 36.3396L33.6415 37.8189V36.3396H35.1208ZM36.6 54.0906C31.7925 54.0906 27.3547 52.2415 24.2113 49.0981L33.6415 39.6679H33.8264V39.483L37.1547 36.1547H37.3396V39.6679H38.634V34.6755L50.0981 23.2113C53.0566 26.5396 55.0906 30.7925 55.0906 35.6C54.9057 45.7698 46.7698 54.0906 36.6 54.0906Z" fill="#414042"/>
<path d="M26.6151 39.6679H27.9094V32.8264H30.3132V31.717H24.3962V32.8264H26.6151V39.6679Z" fill="#414042"/>
<path d="M44.9207 32.6415C46.2151 32.6415 47.1396 33.3812 47.6943 34.6755L48.8038 34.1208C48.249 32.6415 46.5849 31.5321 44.9207 31.5321C42.517 31.5321 40.6679 33.3812 40.6679 35.7849C40.6679 38.1887 42.517 40.0377 44.9207 40.0377C46.7698 40.0377 48.249 38.9283 48.8038 37.4491L47.6943 36.8944C47.3245 38.0038 46.2151 38.9283 44.9207 38.9283C43.2566 38.9283 41.9622 37.4491 41.9622 35.7849C41.9622 33.9359 43.4415 32.6415 44.9207 32.6415Z" fill="#414042"/>
</svg>
