<svg width="73" height="73" viewBox="0 0 73 73" fill="none" xmlns="http://www.w3.org/2000/svg">
<circle opacity="0.15" cx="36.5" cy="36.5" r="36.5" fill="#D8C2AA"/>
<path d="M36.6427 15.6045C25.1716 15.6045 16.0336 24.937 16.0336 36.2137C16.0336 47.6848 25.366 56.8228 36.6427 56.8228C48.1139 56.8228 57.2519 47.4904 57.2519 36.2137C57.4463 24.7425 48.1139 15.6045 36.6427 15.6045ZM36.6427 55.4619C25.9493 55.4619 17.3946 46.9071 17.3946 36.2137C17.3946 25.5202 25.9493 16.9655 36.6427 16.9655C47.3362 16.9655 55.8909 25.5202 55.8909 36.2137C55.8909 46.9071 47.3362 55.4619 36.6427 55.4619Z" fill="#414042"/>
<path d="M33.532 27.2701H24.5884V29.992C24.5884 38.3524 31.3933 45.1573 39.7536 45.1573H48.6972V42.4353C48.6972 34.075 41.8923 27.2701 33.532 27.2701ZM47.3362 43.7963H39.7536C32.171 43.7963 25.9494 37.5747 25.9494 29.992V28.6311H33.532C41.1146 28.6311 47.3362 34.8527 47.3362 42.4353V43.7963Z" fill="#414042"/>
</svg>
